<?xml version="1.0" encoding="UTF-8"?>
<svg id="Referencias" xmlns="http://www.w3.org/2000/svg" viewBox="0 0 239.49 65.78">
  <defs>
    <style>
      .cls-1 {
        fill: #fffef7;
      }
    </style>
  </defs>
  <g>
    <path class="cls-1" d="M59.83,16.86c-7.74,4.38-15.16,9.35-22.17,14.9-1.09.85-2.17,1.72-3.23,2.62-3.08,2.54-6.06,5.2-8.96,7.97-.53.5-1.05,1-1.56,1.51-5.01,4.91-9.75,10.14-14.15,15.69-.22.26-.42.51-.62.77-1.41,1.79-2.78,3.61-4.12,5.46h56.02c2.63,0,4.76-2.13,4.76-4.76V10.66c-.05.1-.09.2-.14.3-1.33,2.49-3.36,4.55-5.82,5.9ZM47.21,60.32c-.59,0-1.15-.24-1.57-.66-4.92-4.98-10.18-9.66-15.77-14,2.53-2.4,5.14-4.71,7.81-6.94,4.99,6.86,9.43,14.08,13.29,21.6h-3.76Z"/>
    <path class="cls-1" d="M4.59,43.61l4.31-11.84,2.06-5.67s.01-.01.01-.02l.46-1.26c1.44-3.42,4.24-6.13,7.72-7.46,1.52-.59,3.18-.91,4.91-.91.46,0,.91.02,1.36.07l-1.9,5.24-3.1,8.5c-.27.75.64,1.38,1.24.84,1.91-1.73,3.85-3.41,5.83-5.04,2.16-1.81,4.36-3.55,6.6-5.23,2.89-2.19,5.84-4.29,8.85-6.28,1.1-.74,2.2-1.46,3.32-2.17.65-.41.36-1.42-.42-1.42h-28.26c-.54,0-.91-.53-.73-1.04L20.46,0H4.76C2.13,0,0,2.13,0,4.76v51.46l1.21-3.31,3.38-9.29Z"/>
  </g>
  <g>
    <g>
      <path class="cls-1" d="M101.72,32.95h-7.56l-3.29-5.68c-3.13-5.37-4.23-5.52-5.56-5.52h-1.21v11.21h-7.09V12.06c0-2.9-.51-4.94-2.59-5.64v-.86h13.6c5.49,0,9.17,3.1,9.17,8.07,0,2.62-1.53,5.13-4.11,6.23,1.45.94,2.66,2.94,3.92,5.02l.94,1.53,3.8,6.54ZM86.16,10.26h-2.08v7.09h2.08c2.43,0,3.84-1.33,3.84-3.53s-1.41-3.57-3.84-3.57Z"/>
      <path class="cls-1" d="M111.49,33.46c-6.15,0-10.81-4.04-10.81-10.15s4.66-10.15,10.89-10.15,10.89,3.88,10.89,10.15c0,5.37-3.76,10.15-10.97,10.15ZM111.57,18.18c-2.39,0-4.08,2.08-4.08,5.13s1.68,5.13,4.08,5.13,4.08-2.12,4.08-5.13-1.69-5.13-4.08-5.13Z"/>
      <path class="cls-1" d="M135.1,33.46c-3.41,0-6.27-.51-9.01-2.19V11.94c0-2.94-.31-4.98-2.47-5.52v-.86h9.01v8.86c1.65-.9,3.29-1.25,4.86-1.25,3.68,0,8.5,2.12,8.5,9.84s-6.11,10.46-10.89,10.46ZM135.69,18.02c-1.14,0-2.23.35-3.06,1.06l.04,9.37c.71.24,1.49.39,2.35.39,1.18,0,2.43-.51,3.1-1.21.94-.94,1.49-2.51,1.49-4.31,0-3.21-1.53-5.29-3.92-5.29Z"/>
      <path class="cls-1" d="M155.94,32.95h-6.54v-12.89c0-2.94-.27-4.98-2.47-5.52v-.86h9.01v19.28ZM152.38,12.02c-1.92,0-3.45-1.57-3.45-3.49s1.53-3.45,3.45-3.45,3.45,1.57,3.45,3.45-1.53,3.49-3.45,3.49Z"/>
      <path class="cls-1" d="M179.57,32.95h-6.58v-12.11c0-.55-.08-1.49-.74-2.16-.39-.39-.94-.59-1.65-.59-1.33,0-2.59.82-3.33,2.16v12.7h-6.58v-12.89c0-2.9-.27-4.98-2.43-5.52v-.86h8.39l.24,2.78c1.33-2.43,3.84-3.29,6.11-3.29,4.66,0,6.58,2.82,6.58,7.56v12.23Z"/>
    </g>
    <g>
      <path class="cls-1" d="M84.61,38.3h-7.56v22.01h7.56c8.12,0,11.75-5.83,11.75-11.02s-3.62-10.99-11.75-10.99ZM83.79,57.7h-3.24v-16.79h3.24c6.17,0,8.98,3.97,8.98,8.38s-2.8,8.41-8.98,8.41Z"/>
      <path class="cls-1" d="M104.77,50.4h9.2v-2.52h-9.2v-6.96h9.54v-2.61h-14.55v.31c1.48.57,1.54,2.17,1.54,4.57v17.13h13.29v-2.61h-9.83v-7.31Z"/>
      <path class="cls-1" d="M126.07,47.34c-1.98-1.13-3.75-2.17-3.75-4.03v-.06c0-1.7,1.35-2.65,3.56-2.65,1.51,0,3.34.25,5.07,1.83v-3.28c-1.57-1.04-3.37-1.32-5.07-1.32-4.03,0-6.87,2.3-6.87,5.89,0,3.02,1.98,4.79,4.82,6.39,3.05,1.7,4.76,2.71,4.76,4.88v.13c0,1.67-1.32,2.99-3.78,2.99-2.17,0-3.97-.76-5.73-2.39v3.46c1.45,1.04,3.31,1.67,5.83,1.67,1.8,0,3.4-.44,4.63-1.39,1.51-1.17,2.33-2.68,2.39-4.63v-.31c0-3.4-2.08-5.04-5.86-7.18Z"/>
      <path class="cls-1" d="M135.55,49.33c0,6.61,5.17,11.53,12.28,11.53,3.31,0,5.64-.72,7.18-1.76v-3.37c-2.05,1.67-4.35,2.42-7.21,2.42-5.1,0-8.57-3.87-8.57-8.82s3.46-8.82,8.57-8.82c2.87,0,5.17.79,7.21,2.46v-3.4c-1.54-1.01-3.87-1.73-7.18-1.73-7.12,0-12.28,4.88-12.28,11.5Z"/>
      <path class="cls-1" d="M176.09,47.88h-11.87v-9.57h-5.01v.35c1.48.54,1.54,2.17,1.54,4.54v17.13h3.46v-9.89h11.87v9.89h3.46v-22.01h-3.46v9.57Z"/>
      <path class="cls-1" d="M195.11,38.3h-2.49l-9.39,22.01h3.02l2.83-6.65h9.29l2.96,6.65h3.53l-9.76-22.01ZM190.2,51.15l2.46-6.02c.47-1.13.79-2.11.91-2.65.13.5.54,1.54,1.01,2.65l2.65,6.02h-7.02Z"/>
      <path class="cls-1" d="M207.24,38.65c1.48.54,1.54,2.17,1.54,4.54v17.13h3.46v-22.01h-5.01v.35Z"/>
      <path class="cls-1" d="M236.53,38.3v16.79l-14.14-16.79h-4.38v.31c1.48.57,1.54,2.17,1.54,4.57v17.13h2.99v-16.88l14.08,16.88h2.87v-22.01h-2.96Z"/>
    </g>
  </g>
</svg>